HIERARCHY
ROOT mixamorig:Hips
{
	OFFSET 0.000000 201.639420 0.000000
	CHANNELS 6 Xposition Yposition Zposition Xrotation Yrotation Zrotation
	JOINT mixamorig:Spine
	{
		OFFSET 0.006200 19.524994 -2.481800
		CHANNELS 3 Xrotation Yrotation Zrotation
		JOINT mixamorig:Spine1
		{
			OFFSET -0.000900 22.835007 -2.825400
			CHANNELS 3 Xrotation Yrotation Zrotation
			JOINT mixamorig:Spine2
			{
				OFFSET -0.020600 26.552490 -3.193300
				CHANNELS 3 Xrotation Yrotation Zrotation
				JOINT mixamorig:Neck
				{
					OFFSET -0.060000 30.701813 1.352200
					CHANNELS 3 Xrotation Yrotation Zrotation
					JOINT mixamorig:Head
					{
						OFFSET -0.087200 22.547607 3.670900
						CHANNELS 3 Xrotation Yrotation Zrotation
						JOINT mixamorig:HeadTop_End
						{
							OFFSET -0.830600 40.355194 7.893500
							CHANNELS 3 Xrotation Yrotation Zrotation
							End Site
							{
								OFFSET 0.000000 30.592346 0.000000
							}
						}
						JOINT mixamorig:RightEye
						{
							OFFSET -6.302100 18.118591 16.197100
							CHANNELS 3 Xrotation Yrotation Zrotation
							End Site
							{
								OFFSET 0.000000 30.592346 0.000000
							}
						}
						JOINT mixamorig:LeftEye
						{
							OFFSET 6.741500 18.382690 16.401899
							CHANNELS 3 Xrotation Yrotation Zrotation
							End Site
							{
								OFFSET 0.000000 30.592346 0.000000
							}
						}
					}
				}
				JOINT mixamorig:LeftShoulder
				{
					OFFSET 11.924900 18.230499 1.425400
					CHANNELS 3 Xrotation Yrotation Zrotation
					JOINT mixamorig:LeftArm
					{
						OFFSET 25.435989 -0.697632 -5.229300
						CHANNELS 3 Xrotation Yrotation Zrotation
						JOINT mixamorig:LeftForeArm
						{
							OFFSET 54.684776 0.000000 0.000000
							CHANNELS 3 Xrotation Yrotation Zrotation
							JOINT mixamorig:LeftHand
							{
								OFFSET 55.098175 0.000000 0.000000
								CHANNELS 3 Xrotation Yrotation Zrotation
								JOINT mixamorig:LeftHandMiddle1
								{
									OFFSET 23.369751 0.000000 0.000000
									CHANNELS 3 Xrotation Yrotation Zrotation
									JOINT mixamorig:LeftHandMiddle2
									{
										OFFSET 6.378677 0.000000 0.000000
										CHANNELS 3 Xrotation Yrotation Zrotation
										JOINT mixamorig:LeftHandMiddle3
										{
											OFFSET 6.148331 0.000000 0.000000
											CHANNELS 3 Xrotation Yrotation Zrotation
											JOINT mixamorig:LeftHandMiddle4
											{
												OFFSET 6.582504 0.000000 0.000000
												CHANNELS 3 Xrotation Yrotation Zrotation
												End Site
												{
													OFFSET -1.168900 6.395691 1.028606
												}
											}
										}
									}
								}
								JOINT mixamorig:LeftHandThumb1
								{
									OFFSET 7.235672 -3.848206 5.434273
									CHANNELS 3 Xrotation Yrotation Zrotation
									JOINT mixamorig:LeftHandThumb2
									{
										OFFSET 6.568451 -3.792297 3.792300
										CHANNELS 3 Xrotation Yrotation Zrotation
										JOINT mixamorig:LeftHandThumb3
										{
											OFFSET 6.063080 -3.500519 3.500518
											CHANNELS 3 Xrotation Yrotation Zrotation
											JOINT mixamorig:LeftHandThumb4
											{
												OFFSET 4.793182 -2.767334 2.767349
												CHANNELS 3 Xrotation Yrotation Zrotation
												End Site
												{
													OFFSET 0.101639 6.054260 1.275483
												}
											}
										}
									}
								}
								JOINT mixamorig:LeftHandIndex1
								{
									OFFSET 23.101074 -0.309540 4.992809
									CHANNELS 3 Xrotation Yrotation Zrotation
									JOINT mixamorig:LeftHandIndex2
									{
										OFFSET 6.226883 0.000000 0.000000
										CHANNELS 3 Xrotation Yrotation Zrotation
										JOINT mixamorig:LeftHandIndex3
										{
											OFFSET 6.094330 0.000000 0.000000
											CHANNELS 3 Xrotation Yrotation Zrotation
											JOINT mixamorig:LeftHandIndex4
											{
												OFFSET 5.482605 0.000000 0.000000
												CHANNELS 3 Xrotation Yrotation Zrotation
												End Site
												{
													OFFSET -1.427902 5.233032 0.797164
												}
											}
										}
									}
								}
								JOINT mixamorig:LeftHandRing1
								{
									OFFSET 22.299240 0.021149 -3.964172
									CHANNELS 3 Xrotation Yrotation Zrotation
									JOINT mixamorig:LeftHandRing2
									{
										OFFSET 6.321869 0.000000 0.000000
										CHANNELS 3 Xrotation Yrotation Zrotation
										JOINT mixamorig:LeftHandRing3
										{
											OFFSET 5.899796 0.000000 0.000000
											CHANNELS 3 Xrotation Yrotation Zrotation
											JOINT mixamorig:LeftHandRing4
											{
												OFFSET 6.517899 0.000000 0.000000
												CHANNELS 3 Xrotation Yrotation Zrotation
												End Site
												{
													OFFSET -1.637299 6.232208 0.980890
												}
											}
										}
									}
								}
								JOINT mixamorig:LeftHandPinky1
								{
									OFFSET 20.463791 -0.302338 -8.562233
									CHANNELS 3 Xrotation Yrotation Zrotation
									JOINT mixamorig:LeftHandPinky2
									{
										OFFSET 6.908646 0.000000 0.000000
										CHANNELS 3 Xrotation Yrotation Zrotation
										JOINT mixamorig:LeftHandPinky3
										{
											OFFSET 4.622849 0.000000 0.000000
											CHANNELS 3 Xrotation Yrotation Zrotation
											JOINT mixamorig:LeftHandPinky4
											{
												OFFSET 5.216080 0.000000 0.000000
												CHANNELS 3 Xrotation Yrotation Zrotation
												End Site
												{
													OFFSET -0.606308 5.116241 0.814926
												}
											}
										}
									}
								}
							}
						}
					}
				}
				JOINT mixamorig:RightShoulder
				{
					OFFSET -12.001300 18.284088 1.348900
					CHANNELS 3 Xrotation Yrotation Zrotation
					JOINT mixamorig:RightArm
					{
						OFFSET -25.308500 -0.751312 -5.164599
						CHANNELS 3 Xrotation Yrotation Zrotation
						JOINT mixamorig:RightForeArm
						{
							OFFSET -54.684429 0.000000 0.000000
							CHANNELS 3 Xrotation Yrotation Zrotation
							JOINT mixamorig:RightHand
							{
								OFFSET -55.150291 0.000000 0.000000
								CHANNELS 3 Xrotation Yrotation Zrotation
								JOINT mixamorig:RightHandMiddle1
								{
									OFFSET -23.317566 0.000000 0.000000
									CHANNELS 3 Xrotation Yrotation Zrotation
									JOINT mixamorig:RightHandMiddle2
									{
										OFFSET -6.378403 0.000000 0.000000
										CHANNELS 3 Xrotation Yrotation Zrotation
										JOINT mixamorig:RightHandMiddle3
										{
											OFFSET -6.148193 0.000000 0.000000
											CHANNELS 3 Xrotation Yrotation Zrotation
											JOINT mixamorig:RightHandMiddle4
											{
												OFFSET -6.583389 0.000000 0.000000
												CHANNELS 3 Xrotation Yrotation Zrotation
												End Site
												{
													OFFSET 1.171692 6.395905 1.029786
												}
											}
										}
									}
								}
								JOINT mixamorig:RightHandThumb1
								{
									OFFSET -7.190521 -3.860474 5.435846
									CHANNELS 3 Xrotation Yrotation Zrotation
									JOINT mixamorig:RightHandThumb2
									{
										OFFSET -6.567429 -3.791718 3.791708
										CHANNELS 3 Xrotation Yrotation Zrotation
										JOINT mixamorig:RightHandThumb3
										{
											OFFSET -6.062469 -3.500153 3.500166
											CHANNELS 3 Xrotation Yrotation Zrotation
											JOINT mixamorig:RightHandThumb4
											{
												OFFSET -4.792618 -2.767029 2.767022
												CHANNELS 3 Xrotation Yrotation Zrotation
												End Site
												{
													OFFSET -0.100327 6.053253 1.276754
												}
											}
										}
									}
								}
								JOINT mixamorig:RightHandIndex1
								{
									OFFSET -23.048981 -0.310791 4.992554
									CHANNELS 3 Xrotation Yrotation Zrotation
									JOINT mixamorig:RightHandIndex2
									{
										OFFSET -6.227539 0.000000 0.000000
										CHANNELS 3 Xrotation Yrotation Zrotation
										JOINT mixamorig:RightHandIndex3
										{
											OFFSET -6.095047 0.000000 0.000000
											CHANNELS 3 Xrotation Yrotation Zrotation
											JOINT mixamorig:RightHandIndex4
											{
												OFFSET -5.484772 0.000000 0.000000
												CHANNELS 3 Xrotation Yrotation Zrotation
												End Site
												{
													OFFSET 1.420593 5.237305 0.797056
												}
											}
										}
									}
								}
								JOINT mixamorig:RightHandRing1
								{
									OFFSET -22.246323 0.020569 -3.963762
									CHANNELS 3 Xrotation Yrotation Zrotation
									JOINT mixamorig:RightHandRing2
									{
										OFFSET -6.322128 0.000000 0.000000
										CHANNELS 3 Xrotation Yrotation Zrotation
										JOINT mixamorig:RightHandRing3
										{
											OFFSET -5.900024 0.000000 0.000000
											CHANNELS 3 Xrotation Yrotation Zrotation
											JOINT mixamorig:RightHandRing4
											{
												OFFSET -6.518356 0.000000 0.000000
												CHANNELS 3 Xrotation Yrotation Zrotation
												End Site
												{
													OFFSET 1.636398 6.232697 0.982186
												}
											}
										}
									}
								}
								JOINT mixamorig:RightHandPinky1
								{
									OFFSET -20.411011 -0.303314 -8.561701
									CHANNELS 3 Xrotation Yrotation Zrotation
									JOINT mixamorig:RightHandPinky2
									{
										OFFSET -6.907349 0.000000 0.000000
										CHANNELS 3 Xrotation Yrotation Zrotation
										JOINT mixamorig:RightHandPinky3
										{
											OFFSET -4.623840 0.000000 0.000000
											CHANNELS 3 Xrotation Yrotation Zrotation
											JOINT mixamorig:RightHandPinky4
											{
												OFFSET -5.218353 0.000000 0.000000
												CHANNELS 3 Xrotation Yrotation Zrotation
												End Site
												{
													OFFSET 0.602097 5.118835 0.816273
												}
											}
										}
									}
								}
							}
						}
					}
				}
			}
		}
	}
	JOINT mixamorig:LeftUpLeg
	{
		OFFSET 18.168400 -13.561905 -0.039000
		CHANNELS 3 Xrotation Yrotation Zrotation
		JOINT mixamorig:LeftLeg
		{
			OFFSET 0.577358 -80.825211 -3.695000
			CHANNELS 3 Xrotation Yrotation Zrotation
			JOINT mixamorig:LeftFoot
			{
				OFFSET -0.577356 -83.370262 -6.520700
				CHANNELS 3 Xrotation Yrotation Zrotation
				JOINT mixamorig:LeftToeBase
				{
					OFFSET 0.750401 -20.798306 25.135401
					CHANNELS 3 Xrotation Yrotation Zrotation
					JOINT mixamorig:LeftToe_End
					{
						OFFSET -0.000500 0.001200 19.917799
						CHANNELS 3 Xrotation Yrotation Zrotation
						End Site
						{
							OFFSET 0.000000 19.917805 0.000000
						}
					}
				}
			}
		}
	}
	JOINT mixamorig:RightUpLeg
	{
		OFFSET -18.162500 -13.585098 -0.041000
		CHANNELS 3 Xrotation Yrotation Zrotation
		JOINT mixamorig:RightLeg
		{
			OFFSET -0.595024 -80.945297 -3.631900
			CHANNELS 3 Xrotation Yrotation Zrotation
			JOINT mixamorig:RightFoot
			{
				OFFSET 0.595024 -83.218193 -6.561200
				CHANNELS 3 Xrotation Yrotation Zrotation
				JOINT mixamorig:RightToeBase
				{
					OFFSET -0.753601 -20.807106 25.115000
					CHANNELS 3 Xrotation Yrotation Zrotation
					JOINT mixamorig:RightToe_End
					{
						OFFSET 0.000299 0.001700 19.918200
						CHANNELS 3 Xrotation Yrotation Zrotation
						End Site
						{
							OFFSET 0.000000 19.918203 0.000000
						}
					}
				}
			}
		}
	}
}
MOTION
Frames: 5
Frame Time: 0.033333
0.096331 195.339661 0.836094 -3.496260 -0.621636 0.179898 -0.973163 0.452931 -1.300709 0.799742 0.062457 0.497766 0.799002 0.063488 0.498400 -6.708121 0.487507 -0.869351 0.723343 1.128466 -1.970277 0.000000 0.000000 -0.000000 0.000000 0.000000 -0.000000 0.000000 0.000000 -0.000000 3.457161 -8.047718 -5.932898 1.815349 -0.778074 -64.928523 -0.000002 -8.820205 -0.000009 14.438156 3.149696 6.685262 0.038256 0.726331 -6.030138 0.076612 1.026347 -8.537218 0.098586 1.163348 -9.687337 0.000003 -0.000000 0.000000 -1.709313 11.927716 7.384729 4.614795 16.216785 1.362216 0.156763 9.826678 3.328262 -0.000001 0.000001 0.000001 0.018881 0.510676 -4.235651 0.046219 0.798094 -6.628487 0.064388 0.941301 -7.824991 -0.000004 0.000000 0.000000 0.073188 1.003348 -8.344366 0.123756 1.302175 -10.857071 0.151072 1.437322 -12.000163 -0.000002 0.000000 -0.000000 0.816430 5.222852 -9.780150 0.163190 -2.542530 -13.143108 0.200761 1.653776 -13.841852 -0.000001 0.000001 0.000000 2.462531 11.149719 5.065150 12.317229 26.908519 54.328144 0.000004 6.445450 0.000008 -6.498385 6.469571 2.563638 0.298439 -2.019028 16.814495 0.288286 -1.985178 16.524273 0.272571 -1.931390 16.063879 -0.000003 0.000002 -0.000002 -2.048915 -12.558904 -8.004008 5.443094 -17.651229 -0.837879 -0.473931 -8.858971 -3.028535 0.000001 0.000004 0.000004 0.136314 -1.372820 11.340894 0.123751 -1.308674 10.804183 0.117710 -1.276551 10.535898 -0.000004 0.000000 -0.000000 0.591294 -2.810638 23.756356 0.580832 -2.786752 23.541912 0.554371 -2.725310 22.992123 -0.000004 0.000001 -0.000001 0.905097 -3.435425 29.511311 0.867511 -3.368296 28.878180 0.849018 -3.334591 28.561669 0.000001 -0.000004 0.000002 -12.059038 7.806677 0.576486 29.623797 -3.509672 -1.219753 -14.059012 -0.568782 3.356486 -0.000272 0.000001 0.000000 0.000000 0.000000 -0.000000 -10.740279 -12.618279 -1.640439 28.957045 -9.783913 -3.730994 -14.949522 -3.574923 4.472428 -0.000011 0.000000 -0.000000 -0.000000 -0.000000 0.000000 
0.278775 195.376328 0.737069 -3.697647 -0.615496 0.188199 -0.821755 0.185531 -0.918225 0.917350 0.023975 0.204275 0.917018 0.025215 0.204307 -6.942735 0.509057 -0.699467 0.737039 1.469125 -1.822741 -0.000000 0.000000 -0.000000 -0.000000 0.000000 -0.000000 -0.000000 0.000000 -0.000000 3.537047 -8.337695 -5.795739 1.588839 0.342594 -65.091614 -0.000000 -8.480984 -0.000002 14.841767 2.397599 7.484999 0.039921 0.741915 -6.160010 0.077801 1.034360 -8.604273 0.099245 1.167173 -9.719573 0.000001 -0.000000 -0.000000 -1.709308 11.927716 7.384730 4.614796 16.216785 1.362210 0.156762 9.826685 3.328260 0.000002 -0.000000 -0.000001 0.020065 0.526420 -4.366392 0.047139 0.805926 -6.693857 0.064919 0.945210 -7.857696 0.000001 -0.000001 -0.000001 0.075486 1.018846 -8.474273 0.125282 1.310136 -10.924141 0.151897 1.441110 -12.032414 -0.000002 0.000001 0.000001 0.828418 5.236750 -9.911675 0.164989 -2.534854 -13.208395 0.201694 1.657611 -13.874556 -0.000002 -0.000001 0.000000 2.384598 10.629858 4.973905 10.714035 27.871845 54.786791 0.000002 5.473738 -0.000011 -7.368234 7.007796 2.911274 0.294409 -2.005650 16.699799 0.286230 -1.978261 16.465071 0.271617 -1.928069 16.035421 -0.000002 0.000001 -0.000002 -2.048914 -12.558912 -8.004012 5.443092 -17.651229 -0.837872 -0.473924 -8.858968 -3.028528 0.000002 0.000002 0.000002 0.133715 -1.359728 11.231413 0.122511 -1.302111 10.749487 0.117090 -1.273272 10.508544 0.000002 -0.000001 0.000000 0.585320 -2.797026 23.634128 0.577755 -2.779720 23.478813 0.552946 -2.721933 22.961805 0.000003 -0.000000 0.000000 0.897367 -3.421762 29.382183 0.863734 -3.361440 28.813607 0.847147 -3.331146 28.529389 0.000003 -0.000001 0.000005 -11.782483 8.019165 0.653965 29.465918 -3.699051 -1.433045 -13.976479 -0.594524 3.566776 -0.000270 0.000002 0.000000 -0.000000 -0.000000 -0.000000 -10.537678 -12.583228 -1.652157 28.867299 -9.801557 -3.807305 -14.861375 -3.521227 4.547699 -0.000065 0.000003 0.000003 0.000000 0.000000 0.000000 
0.491854 195.447433 0.545609 -3.960216 -0.603363 0.260855 -0.410158 -0.355938 -0.512956 0.962086 -0.051418 -0.077720 0.962055 -0.050211 -0.078501 -7.272169 0.677339 -0.699590 0.712089 2.240411 -1.749589 0.000001 0.000000 -0.000000 0.000001 0.000000 -0.000000 0.000001 0.000000 -0.000000 3.719406 -8.922477 -6.022998 2.110202 1.311870 -64.409387 0.000003 -8.287392 0.000021 15.438470 1.398469 8.004848 0.036761 0.712088 -5.911376 0.075527 1.019047 -8.475979 0.097985 1.159847 -9.657919 0.000002 -0.000000 -0.000000 -1.709306 11.927718 7.384736 4.614799 16.216788 1.362219 0.156758 9.826681 3.328262 0.000001 0.000001 0.000006 0.017829 0.496303 -4.116185 0.045390 0.790923 -6.568724 0.063889 0.937728 -7.795140 0.000001 0.000001 -0.000000 0.071125 0.989167 -8.225595 0.122361 1.294932 -10.795816 0.150344 1.433842 -11.970748 -0.000001 0.000001 0.000000 0.805512 5.210132 -9.659990 0.161554 -2.549555 -13.083469 0.199894 1.650282 -13.811973 -0.000001 0.000000 0.000001 2.285830 9.907640 4.561892 8.141615 30.016250 55.423153 0.000012 5.393339 -0.000015 -7.330594 8.165807 4.107949 0.286533 -1.979252 16.473510 0.282229 -1.964631 16.348235 0.269720 -1.921484 15.979311 -0.000001 0.000001 0.000002 -2.048919 -12.558907 -8.004022 5.443092 -17.651232 -0.837878 -0.473928 -8.858971 -3.028534 0.000000 0.000002 0.000003 0.128628 -1.333937 11.015488 0.120075 -1.289187 10.641520 0.115907 -1.266794 10.454540 0.000002 -0.000001 0.000000 0.573598 -2.770144 23.393027 0.571738 -2.765843 23.354334 0.550103 -2.715219 22.902022 -0.000001 0.000002 0.000001 0.882225 -3.394770 29.127396 0.856285 -3.347878 28.686269 0.843445 -3.324347 28.465742 -0.000002 0.000000 0.000005 -11.391844 8.306601 0.718210 29.148751 -3.983444 -1.762548 -13.779327 -0.634960 3.866279 -0.000255 0.000001 0.000001 0.000000 -0.000000 -0.000000 -10.313715 -12.524669 -1.703286 28.743195 -9.825342 -3.948316 -14.718002 -3.457892 4.650849 -0.000042 0.000002 -0.000001 -0.000000 0.000002 0.000000 
0.718985 195.473572 0.275378 -4.168116 -0.739113 0.489036 0.198958 -1.137288 -0.092590 0.916437 -0.157590 -0.383148 0.915909 -0.157120 -0.384691 -7.634727 1.032231 -0.918660 0.539798 3.551668 -1.724708 -0.000001 0.000000 0.000000 -0.000001 0.000000 0.000000 -0.000001 0.000000 0.000000 3.962248 -9.721352 -6.595425 3.757434 1.857374 -62.723622 -0.000001 -8.219163 -0.000014 16.502524 0.258122 7.670376 0.031048 0.654512 -5.431922 0.071166 0.989506 -8.228471 0.095592 1.145704 -9.538983 0.000002 0.000000 0.000000 -1.709307 11.927715 7.384738 4.614796 16.216788 1.362217 0.156763 9.826684 3.328265 0.000004 0.000001 0.000001 0.013896 0.438195 -3.633601 0.042115 0.761994 -6.327387 0.061935 0.923301 -7.674444 0.000000 0.000000 0.000000 0.063079 0.931861 -7.746068 0.116844 1.265587 -10.548250 0.147369 1.419812 -11.851792 0.000001 -0.000000 -0.000000 0.761658 5.158488 -9.174713 0.155011 -2.577922 -12.842437 0.196438 1.636138 -13.691238 -0.000001 -0.000000 0.000000 2.182442 9.188185 3.852490 6.083614 32.835851 55.554170 -0.000001 7.569084 0.000005 -5.876050 8.773579 4.979346 0.280869 -1.959983 16.308605 0.279315 -1.954685 16.263119 0.268355 -1.916698 15.938412 0.000000 -0.000000 -0.000002 -2.048915 -12.558908 -8.004002 5.443091 -17.651231 -0.837877 -0.473928 -8.858973 -3.028532 0.000000 -0.000003 -0.000000 0.124995 -1.315107 10.858128 0.118319 -1.279773 10.562841 0.115034 -1.262095 10.415203 0.000002 -0.000001 -0.000002 0.565128 -2.750520 23.217319 0.567374 -2.755705 23.263635 0.548048 -2.710361 22.858430 0.000001 0.000002 -0.000004 0.871252 -3.375044 28.941786 0.850876 -3.337991 28.593462 0.840751 -3.319386 28.419306 0.000002 0.000003 -0.000002 -11.029407 8.544340 0.592564 28.799448 -3.978664 -2.150497 -13.560198 -0.672301 4.153027 -0.000251 -0.000000 -0.000000 0.000000 -0.000000 0.000000 -10.379527 -12.388599 -1.908580 28.875359 -9.835575 -4.206702 -14.642747 -3.334538 4.829134 -0.000024 -0.000003 0.000000 0.000000 -0.000002 -0.000000 
0.936938 195.380341 -0.029138 -4.254956 -1.192533 0.925935 0.851993 -2.042474 0.351674 0.827114 -0.278215 -0.795507 0.824171 -0.279814 -0.797768 -8.004360 1.564830 -1.341636 0.052099 5.375265 -1.613246 0.000001 0.000000 -0.000000 0.000001 0.000000 -0.000000 0.000001 0.000000 -0.000000 4.166146 -10.464564 -7.270041 6.693716 1.832360 -60.059049 0.000000 -8.251721 -0.000011 18.366799 -0.888754 5.861632 0.025652 0.595094 -4.937443 0.066832 0.959012 -7.973139 0.093154 1.131098 -9.416333 0.000002 -0.000001 0.000000 -1.709313 11.927714 7.384736 4.614792 16.216787 1.362221 0.156761 9.826684 3.328259 -0.000001 -0.000001 -0.000000 0.010343 0.378258 -3.135810 0.038867 0.732125 -6.078520 0.059938 0.908414 -7.549988 0.000007 0.000001 -0.000001 0.055295 0.872727 -7.251494 0.111259 1.235282 -10.292899 0.144352 1.405316 -11.729106 -0.000001 -0.000001 -0.000000 0.716883 5.104860 -8.674224 0.148404 -2.607226 -12.593867 0.192885 1.621554 -13.566681 -0.000004 -0.000001 -0.000001 2.110436 8.747907 3.000195 6.637149 35.416798 54.007306 -0.000013 13.390873 -0.000019 -2.384159 7.130697 3.852048 0.285066 -1.974277 16.430799 0.281474 -1.962047 16.326196 0.269359 -1.920244 15.968726 0.000003 -0.000002 -0.000001 -2.048916 -12.558910 -8.004020 5.443097 -17.651229 -0.837876 -0.473923 -8.858971 -3.028534 0.000000 -0.000002 -0.000001 0.127676 -1.329061 10.974724 0.119622 -1.286758 10.621161 0.115676 -1.265587 10.444355 -0.000004 0.000001 -0.000000 0.571402 -2.765072 23.347509 0.570600 -2.763208 23.330862 0.549579 -2.713972 22.890727 0.000001 -0.000001 -0.000002 0.879378 -3.389674 29.079343 0.854878 -3.345318 28.662226 0.842746 -3.323056 28.453711 -0.000001 -0.000003 0.000001 -10.792192 8.632722 0.161318 28.571352 -3.381044 -2.537811 -13.436301 -0.694606 4.334038 -0.000232 -0.000001 0.000000 -0.000000 -0.000000 0.000000 -10.926356 -12.109880 -2.326874 29.482563 -9.814520 -4.633598 -14.747080 -3.095459 5.126309 -0.000086 -0.000002 -0.000001 -0.000000 -0.000000 0.000000 
